ik_tiny_file
version=1
nRows=10
nColumns=40
inDegrees=yes
endheader
time	pelvis_tilt	pelvis_list	pelvis_rotation	pelvis_tx	pelvis_ty	pelvis_tz	hip_flexion_r	hip_adduction_r	hip_rotation_r	knee_angle_r	knee_angle_r_beta	ankle_angle_r	subtalar_angle_r	mtp_angle_r	hip_flexion_l	hip_adduction_l	hip_rotation_l	knee_angle_l	knee_angle_l_beta	ankle_angle_l	subtalar_angle_l	mtp_angle_l	lumbar_extension	lumbar_bending	lumbar_rotation	arm_flex_r	arm_add_r	arm_rot_r	elbow_flex_r	pro_sup_r	wrist_flex_r	wrist_dev_r	arm_flex_l	arm_add_l	arm_rot_l	elbow_flex_l	pro_sup_l	wrist_flex_l	wrist_dev_l
      0.00000000	     90.67051547	      0.91865564	      3.07972062	      0.00000000	      0.94000000	      0.00000000	      9.32191074	     -4.07462301	      0.00000000	     17.08330260	      0.29815988	     -1.11578818	      0.00000000	      0.00000000	      9.32191074	     -4.07462301	      0.00000000	     17.08330260	      0.29815988	     -1.11578818	      0.00000000	      0.00000000	    -89.73929800	      8.69260195	      7.89216010	    -89.88152736	     10.03820080	    -15.31439824	     82.33694000	     16.93515049	      0.00000000	      2.70451231	     -1.91581753	      5.37444266	      8.95423204	      0.59334636	     16.93515049	      0.00000000	      2.70451231
      0.02000000	     90.77754412	      0.91984282	      3.12409096	      0.00000000	      0.94000000	      0.00000000	      9.33336792	     -4.07990893	      0.00000000	     17.10035355	      0.29845747	     -1.11713349	      0.00000000	      0.00000000	      9.33336792	     -4.07990893	      0.00000000	     17.10035355	      0.29845747	     -1.11713349	      0.00000000	      0.00000000	    -89.76495678	      8.69662094	      7.89137469	    -89.88546537	     10.04337280	    -15.32850600	     82.31766407	     16.96674411	      0.00000000	      2.70808916	     -1.92904575	      5.38507518	      8.95141396	      0.56699238	     16.96674411	      0.00000000	      2.70808916
      0.04000000	     90.85821890	      0.91831304	      3.17099047	      0.00000000	      0.94000000	      0.00000000	      9.34624730	     -4.08584846	      0.00000000	     17.11950643	      0.29879175	     -1.11864606	      0.00000000	      0.00000000	      9.34624730	     -4.08584846	      0.00000000	     17.11950643	      0.29879175	     -1.11864606	      0.00000000	      0.00000000	    -89.78451800	      8.70960688	      7.90400453	    -89.88812314	     10.05381591	    -15.35696121	     82.34277971	     17.00218667	      0.00000000	      2.71210579	     -1.91139222	      5.39089428	      8.92717090	      0.56529839	     17.00218667	      0.00000000	      2.71210579
      0.06000000	     90.95346710	      0.91790411	      3.20956293	      0.00000000	      0.94000000	      0.00000000	      9.35784043	     -4.09119194	      0.00000000	     17.13673337	      0.29909242	     -1.12000782	      0.00000000	      0.00000000	      9.35784043	     -4.09119194	      0.00000000	     17.13673337	      0.29909242	     -1.12000782	      0.00000000	      0.00000000	    -89.80649643	      8.71454651	      7.89392281	    -89.89236092	     10.03658462	    -15.34356403	     82.29181513	     17.03401397	      0.00000000	      2.71571653	     -1.93319938	      5.44828850	      8.96033154	      0.54796698	     17.03401397	      0.00000000	      2.71571653
      0.08000000	     91.02155458	      0.91999750	      3.25180143	      0.00000000	      0.94000000	      0.00000000	      9.37033532	     -4.09694836	      0.00000000	     17.15528609	      0.29941623	     -1.12147577	      0.00000000	      0.00000000	      9.37033532	     -4.09694836	      0.00000000	     17.15528609	      0.29941623	     -1.12147577	      0.00000000	      0.00000000	    -89.81984160	      8.72368864	      7.91369922	    -89.89384333	     10.05193343	    -15.35035457	     82.30111488	     17.06824322	      0.00000000	      2.71960369	     -1.92850906	      5.48810446	      8.98109362	      0.53820864	     17.06824322	      0.00000000	      2.71960369
      0.10000000	     91.09537272	      0.92486504	      3.28370641	      0.00000000	      0.94000000	      0.00000000	      9.38287072	     -4.10272071	      0.00000000	     17.17388480	      0.29974084	     -1.12294873	      0.00000000	      0.00000000	      9.38287072	     -4.10272071	      0.00000000	     17.17388480	      0.29974084	     -1.12294873	      0.00000000	      0.00000000	    -89.83246329	      8.73536054	      7.97364787	    -89.89766818	     10.09835466	    -15.36453660	     82.28903612	     17.10250782	      0.00000000	      2.72349881	     -1.91847249	      5.52150347	      9.02119661	      0.51224437	     17.10250782	      0.00000000	      2.72349881
      0.12000000	     91.15220409	      0.92351051	      3.31976092	      0.00000000	      0.94000000	      0.00000000	      9.39765901	     -4.10952760	      0.00000000	     17.19580711	      0.30012345	     -1.12468673	      0.00000000	      0.00000000	      9.39765901	     -4.10952760	      0.00000000	     17.19580711	      0.30012345	     -1.12468673	      0.00000000	      0.00000000	    -89.83977298	      8.76665102	      8.07737469	    -89.90034262	     10.15563789	    -15.39887036	     82.27310215	     17.14284236	      0.00000000	      2.72808897	     -1.91210839	      5.55167701	      9.17829791	      0.50423037	     17.14284236	      0.00000000	      2.72808897
      0.14000000	     91.21697369	      0.91980687	      3.35832136	      0.00000000	      0.94000000	      0.00000000	      9.41105846	     -4.11569156	      0.00000000	     17.21565355	      0.30046984	     -1.12626183	      0.00000000	      0.00000000	      9.41105846	     -4.11569156	      0.00000000	     17.21565355	      0.30046984	     -1.12626183	      0.00000000	      0.00000000	    -89.84694340	      8.81210647	      8.15104597	    -89.90397528	     10.18434762	    -15.42220908	     82.24817332	     17.17929394	      0.00000000	      2.73224200	     -1.95684434	      5.57330468	      9.32747388	      0.49737497	     17.17929394	      0.00000000	      2.73224200
      0.16000000	     91.27389256	      0.90687245	      3.39403247	      0.00000000	      0.94000000	      0.00000000	      9.42386503	     -4.12157975	      0.00000000	     17.23460659	      0.30080063	     -1.12776751	      0.00000000	      0.00000000	      9.42386503	     -4.12157975	      0.00000000	     17.23460659	      0.30080063	     -1.12776751	      0.00000000	      0.00000000	    -89.85434890	      8.82995849	      8.16978563	    -89.90656617	     10.20163091	    -15.44391144	     82.23828385	     17.21405156	      0.00000000	      2.73620620	     -1.97012922	      5.58232423	      9.33610986	      0.49612667	     17.21405156	      0.00000000	      2.73620620
      0.18000000	     91.32149296	      0.90047079	      3.42782198	      0.00000000	      0.94000000	      0.00000000	      9.43667315	     -4.12746576	      0.00000000	     17.25354698	      0.30113120	     -1.12927366	      0.00000000	      0.00000000	      9.43667315	     -4.12746576	      0.00000000	     17.25354698	      0.30113120	     -1.12927366	      0.00000000	      0.00000000	    -89.86200628	      8.82931095	      8.15966735	    -89.90929159	     10.22121327	    -15.45056459	     82.25038866	     17.24873558	      0.00000000	      2.74016602	     -1.95643230	      5.59455298	      9.27714473	      0.49540193	     17.24873558	      0.00000000	      2.74016602
